<?xml version="1.0" encoding="UTF-8" standalone="no"?>
<svg
   xmlns:dc="http://purl.org/dc/elements/1.1/"
   xmlns:cc="http://creativecommons.org/ns#"
   xmlns:rdf="http://www.w3.org/1999/02/22-rdf-syntax-ns#"
   xmlns:svg="http://www.w3.org/2000/svg"
   xmlns="http://www.w3.org/2000/svg"
   id="svg6"
   viewBox="0 0 557.71 968.88"
   version="1.1"
   height="1614.8"
   width="929.52">
  <defs
     id="defs10" />
  <metadata
     id="metadata2">
    <rdf:RDF>
      <cc:Work
         rdf:about="">
        <dc:format>image/svg+xml</dc:format>
        <dc:type
           rdf:resource="http://purl.org/dc/dcmitype/StillImage" />
        <dc:title></dc:title>
      </cc:Work>
    </rdf:RDF>
  </metadata>
  <path
     style="stroke:#ffffff;stroke-opacity:1;stroke-width:2.14019994;stroke-miterlimit:4;stroke-dasharray:none"
     id="path4"
     d="m209.45 967.37c-1.4215-1.4215-1.5714-29.716-1.5714-296.5 0-162.21-0.37517-294.93-0.83371-294.93-0.45855 0-6.646 2.2601-13.75 5.0224-7.104 2.7624-16.291 6.3355-20.416 7.9403-4.125 1.6048-12.9 5.0072-19.5 7.5609s-17.175 6.6756-23.5 9.1597c-27.192 10.68-34.334 13.468-49 19.131-8.525 3.2918-20.788 8.0551-27.25 10.585-6.4625 2.5301-17.038 6.652-23.5 9.1598-6.4625 2.5078-15.226 5.9353-19.475 7.6166-8.3288 3.2959-11.109 3.1877-10.595-0.4125 0.3856-2.7042-1.0258-2.0526 32.07-14.805 14.712-5.6691 26.75-10.679 26.75-11.133s-1.0366-0.82557-2.3037-0.82557c-3.8824 0-12.306-4.8529-16.702-9.6224-6.3472-6.8859-8.464-12.357-8.4643-21.878l-2.7e-4 -8 13.15-28c7.2324-15.4 15.721-33.4 18.864-40s12.465-26.4 20.715-44 16.915-36.05 19.254-41 9.7392-20.7 16.445-35c35.879-76.513 36.124-76.946 46.39-81.969 12.602-6.1654 27.238-3.6068 37.404 6.5385l4.25 4.2416v-61.584c0-54.652 0.17688-61.761 1.5714-63.156 1.8268-1.8268 3.7813-1.9882 6.4943-0.53625 1.9014 1.0176 1.9343 4.1088 1.9343 182 0 110.29 0.36151 180.96 0.9257 180.96 0.73684 0 69.326-26.495 132.57-51.211 5.5-2.1493 13.375-5.2044 17.5-6.789s12.225-4.7347 18-7 13.875-5.4128 18-6.9945 13.8-5.3317 21.5-8.3336c35.006-13.647 56.587-22.036 63.5-24.683 4.125-1.5794 16.275-6.3019 27-10.495 38.415-15.018 38.033-14.891 39.743-13.18 0.84151 0.84151 1.2925 2.149 1.0022 2.9054s-7.8893 4.2274-16.887 7.7131c-37.503 14.529-41.859 16.316-41.859 17.171 0 0.49265 1.058 0.89572 2.3511 0.89572 3.1598 0 11.384 4.4299 15.438 8.3152 1.8088 1.7338 4.6213 5.819 6.25 9.0783 2.5461 5.0952 2.9613 7.0552 2.9613 13.981 0 8.7782 0.11112 8.5027-23.163 57.449-3.3152 6.972-10.663 22.576-16.329 34.676s-12.429 26.5-15.029 32c-11.138 23.561-14.086 29.819-20.961 44.5-3.9921 8.525-9.1712 19.55-11.509 24.5-2.338 4.95-6.2706 13.275-8.7392 18.5s-9.3396 19.85-15.269 32.5c-10.606 22.628-15.104 32.181-24.483 52-2.6028 5.5-7.5633 16.075-11.023 23.5-3.46 7.425-9.0772 19.35-12.483 26.5-3.4055 7.15-12.405 26.275-19.999 42.5-7.5938 16.225-16.372 34.9-19.508 41.5-3.1355 6.6-10.339 21.9-16.008 34-5.6687 12.1-13.189 28.075-16.712 35.5s-9.963 21.085-14.312 30.355c-8.9335 19.044-12.784 24.177-21.259 28.339-4.8195 2.3667-6.9706 2.8062-13.735 2.8062-7.0447 0-8.8326-0.3995-14.688-3.2823-3.667-1.8052-7.77-4.5928-9.1178-6.1945-1.3478-1.6018-2.7256-2.6373-3.0617-2.3011s-0.61122 27.97-0.61122 61.409c0 59.086-0.0545 60.827-1.9343 61.833-2.713 1.452-4.6675 1.2906-6.4943-0.5362z" />
</svg>
